<?xml version="1.0" encoding="UTF-8"?>
<svg id="Layer_2" data-name="Layer 2" xmlns="http://www.w3.org/2000/svg" viewBox="0 0 1406 392.12">
  <defs>
    <style>
      .cls-1 {
        fill: #e7f2ee;
        stroke-width: 0px;
      }
    </style>
  </defs>
  <g id="Layer_1-2" data-name="Layer 1">
    <g>
      <polygon class="cls-1" points="24.73 7.06 0 7.06 0 381.52 24.73 381.52 49.46 381.52 227.86 381.52 227.86 332.07 49.46 332.07 49.46 219.02 227.86 219.02 227.86 169.57 49.46 169.57 49.46 56.52 227.86 56.52 227.86 7.06 49.46 7.06 24.73 7.06"/>
      <polygon class="cls-1" points="922.03 169.57 768.35 169.57 768.35 7.06 718.9 7.06 718.9 169.57 718.9 219.02 718.9 381.52 768.35 381.52 768.35 219.02 922.03 219.02 922.03 381.52 971.48 381.52 971.48 7.06 922.03 7.06 922.03 169.57"/>
      <path class="cls-1" d="m473.38,335.6c-77.07,0-139.54-62.47-139.54-139.54s62.47-139.54,139.54-139.54c42.73,0,80.98,19.21,106.57,49.46h67.62C614.94,43.02,549.19,0,473.38,0c-108.29,0-196.07,87.78-196.07,196.06s87.78,196.06,196.07,196.06c77.21,0,144-44.64,175.97-109.51h-66.51c-25.56,32.28-65.09,52.99-109.46,52.99Z"/>
      <path class="cls-1" d="m1401.78,155.43h-58.3c3.9,12.86,6,26.5,6,40.63,0,12.84-1.73,25.28-4.98,37.09h58c2.3-12.01,3.5-24.41,3.5-37.09,0-13.93-1.45-27.52-4.22-40.63Z"/>
      <path class="cls-1" d="m1209.94,335.6c-77.07,0-139.54-62.47-139.54-139.54s62.47-139.54,139.54-139.54c42.73,0,80.98,19.21,106.57,49.46h67.62C1351.5,43.02,1285.75,0,1209.94,0c-108.29,0-196.07,87.78-196.07,196.06s87.78,196.06,196.07,196.06c77.21,0,144-44.64,175.97-109.51h-66.51c-25.56,32.28-65.09,52.99-109.46,52.99Z"/>
    </g>
  </g>
</svg>