<svg width="30" height="20" viewBox="0 0 30 20" fill="none" xmlns="http://www.w3.org/2000/svg">
<mask id="mask0_65_2" style="mask-type:alpha" maskUnits="userSpaceOnUse" x="0" y="0" width="30" height="20">
<path d="M0 10C0 4.47715 4.47715 0 10 0H20C25.5228 0 30 4.47715 30 10V10C30 15.5228 25.5228 20 20 20H10C4.47715 20 0 15.5228 0 10V10Z" fill="#D9D9D9"/>
</mask>
<g mask="url(#mask0_65_2)">
<path d="M0 -1H30V21H0V-1Z" fill="url(#paint0_linear_65_2)"/>
<path d="M15.9734 7.43055C15.9289 8.05446 15.9684 8.67921 15.9507 9.30312C15.9461 9.45215 15.9898 9.49486 16.1368 9.49357C17.0271 9.48589 17.9178 9.4876 18.808 9.48632C18.8101 9.54909 18.8206 9.61315 18.8118 9.67421C18.6803 10.5941 18.5442 11.513 18.416 12.4333C18.398 12.5623 18.3446 12.5896 18.2257 12.5887C17.5472 12.5836 16.8687 12.5939 16.1902 12.5819C15.9978 12.5785 15.9482 12.6319 15.949 12.827C15.9549 15.218 15.9545 17.609 15.9469 20H12.6985C12.6926 17.5936 12.6922 15.1881 12.6972 12.7822C12.6977 12.6199 12.6536 12.5823 12.4989 12.5841C11.7293 12.5922 10.9596 12.5841 10.1899 12.5905C10.045 12.5917 9.99876 12.5525 10 12.4009C10.008 11.4302 10.0063 10.4591 10.008 9.48845C10.8378 9.48888 11.6675 9.48461 12.4973 9.49229C12.654 9.494 12.7006 9.45044 12.6964 9.2903C12.6855 8.89273 12.6993 8.49431 12.6909 8.09631C12.6796 7.5655 12.6893 7.0381 12.7506 6.51797C12.7573 6.46075 12.7649 6.40353 12.7729 6.3463C12.7771 6.31812 12.7813 6.28951 12.7855 6.26089C12.7943 6.2041 12.8035 6.14688 12.8136 6.09008C12.8342 5.97649 12.8573 5.86332 12.8838 5.75058C12.8968 5.69421 12.9111 5.63785 12.9258 5.5819C12.9779 5.38547 13.0405 5.19031 13.1153 4.99686V4.99686C13.2014 4.89821 13.2527 4.78206 13.285 4.65523C13.4421 4.46819 13.5623 4.25381 13.7366 4.0783C14.0547 3.75888 14.4059 3.49411 14.8256 3.33483C16.1994 2.81384 17.5892 2.9949 18.9798 3.24728C18.9866 3.35789 18.9929 3.46892 18.9992 3.57952C18.9824 3.6692 18.9815 3.75888 19 3.84855C18.9903 4.50021 18.9807 5.15145 18.971 5.80311C18.4337 5.7651 17.8963 5.73137 17.3594 5.8014C16.8456 5.86845 16.3889 6.03755 16.1587 6.56324C16.0385 6.83782 15.9784 7.12906 15.9734 7.43055Z" fill="white"/>
</g>
<defs>
<linearGradient id="paint0_linear_65_2" x1="15" y1="-1" x2="15" y2="21" gradientUnits="userSpaceOnUse">
<stop stop-color="#17A9F4"/>
<stop offset="1" stop-color="#0266E0"/>
</linearGradient>
</defs>
</svg>
