<svg width="30" height="20" viewBox="0 0 30 20" fill="none" xmlns="http://www.w3.org/2000/svg">
<mask id="mask0_5_153" style="mask-type:alpha" maskUnits="userSpaceOnUse" x="0" y="0" width="30" height="20">
<path d="M0 10C0 4.47715 4.47715 0 10 0H20C25.5228 0 30 4.47715 30 10C30 15.5228 25.5228 20 20 20H10C4.47715 20 0 15.5228 0 10Z" fill="#D9D9D9"/>
</mask>
<g mask="url(#mask0_5_153)">
<path d="M0 -1H30V21H0V-1Z" fill="#010201"/>
<path d="M11.5217 13.9044C11.5342 13.9148 11.5468 13.9268 11.5593 13.9373C11.6767 14.0166 11.7613 14.1303 11.8725 14.2155C12.2201 14.4819 12.6117 14.627 13.0595 14.6539C14.1213 14.7167 15.0468 13.9537 15.1674 12.9498C15.1737 12.9005 15.1705 12.8511 15.1705 12.8032C15.1705 9.78259 15.1705 6.76195 15.1705 3.73982C15.1705 3.60417 15.2415 3.53635 15.3835 3.53635C15.8643 3.53635 16.345 3.53635 16.8258 3.53635C16.8712 3.53635 16.9182 3.52887 16.9589 3.5558C16.9621 3.55879 16.9636 3.56029 16.9668 3.56178C16.9902 3.58422 16.9965 3.61415 17.0028 3.64257C17.1876 4.45645 17.6354 5.10576 18.3386 5.59649C18.3824 5.62641 18.42 5.66531 18.4607 5.69822C18.492 5.72365 18.5218 5.74759 18.5531 5.77303C18.6659 5.83437 18.7473 5.93311 18.846 6.0124C19.2343 6.3221 19.6744 6.53604 20.1646 6.65573C20.2084 6.6662 20.257 6.6662 20.2883 6.7051C20.2898 6.70809 20.293 6.70959 20.2961 6.71108C20.3243 6.73951 20.3196 6.77691 20.3196 6.81132C20.3196 7.34394 20.3196 7.87655 20.3196 8.40916C20.3196 8.53035 20.3024 8.53783 20.174 8.53783C19.7652 8.53783 19.3643 8.48547 18.9681 8.39869C18.2853 8.24908 17.6558 7.98427 17.0717 7.61772C17.0419 7.59827 17.009 7.55788 16.9761 7.57134C16.9354 7.5893 16.9558 7.64017 16.9558 7.67607C16.9558 9.17517 16.962 10.6743 16.9527 12.1749C16.9464 13.2236 16.5972 14.1602 15.8784 14.9591C15.1157 15.8074 14.1464 16.2996 12.9828 16.4358C12.0855 16.5405 11.2351 16.3849 10.4271 16.0049C10.2971 15.9436 10.1718 15.8717 10.0543 15.788C10.0183 15.7565 9.98074 15.7251 9.94316 15.6937C9.66441 15.4738 9.47178 15.1895 9.29013 14.8993C9.01138 14.4504 8.83128 13.9657 8.74359 13.451C8.69347 13.1563 8.66685 12.8601 8.68408 12.5624C8.73889 11.6019 9.07715 10.7461 9.72548 10.0055C10.2689 9.38463 10.9485 8.95076 11.7488 8.68894C12.0823 8.57972 12.4269 8.51239 12.7808 8.48846C12.8466 8.48397 12.9108 8.46901 12.9765 8.4735C13.0079 8.47499 13.0392 8.47349 13.0674 8.49294C13.0705 8.49594 13.0736 8.49743 13.0768 8.49893C13.0955 8.52885 13.0909 8.56326 13.0909 8.59468C13.0909 9.13478 13.0909 9.67637 13.0909 10.2165C13.0909 10.2359 13.0909 10.2554 13.0909 10.2733C13.0877 10.3272 13.0595 10.3451 13.0063 10.3317C12.8513 10.2898 12.6931 10.2703 12.5333 10.2628C12.2859 10.2509 12.0416 10.2838 11.8083 10.3661C11.03 10.6399 10.5586 11.1725 10.4599 11.9564C10.3628 12.7284 10.6823 13.3463 11.3541 13.7922C11.4105 13.8296 11.4685 13.864 11.5217 13.9059V13.9044Z" fill="white"/>
<path d="M10.0575 15.788C10.0872 15.7805 10.1045 15.8029 10.1248 15.8149C10.6306 16.1096 11.1756 16.3026 11.7613 16.3924C12.0557 16.4373 12.3517 16.4567 12.6492 16.4418C13.6437 16.3924 14.5347 16.0767 15.3052 15.4678C16.0459 14.8828 16.5392 14.1437 16.7851 13.2565C16.8634 12.9768 16.9057 12.691 16.9213 12.4008C16.9307 12.2347 16.9292 12.0671 16.9292 11.9011C16.9292 10.4723 16.9292 9.04351 16.9292 7.61473V7.51749C16.9683 7.50701 16.9855 7.53544 17.0075 7.5489C17.5399 7.8975 18.1162 8.15483 18.7395 8.3194C19.0809 8.40917 19.4285 8.46901 19.7824 8.49893C19.9312 8.5109 20.08 8.50941 20.2272 8.51988C20.2914 8.52437 20.293 8.52137 20.2945 8.45704C20.2945 8.38822 20.2945 8.32089 20.2945 8.25207C20.2945 7.76883 20.2945 7.28559 20.2945 6.80085C20.2945 6.77093 20.2961 6.74101 20.2977 6.71108C20.4308 6.72605 20.5623 6.75297 20.697 6.76195C20.78 6.76794 20.863 6.77542 20.946 6.77243C20.9867 6.77243 21.0039 6.78439 20.9992 6.82479C20.9977 6.84124 20.9992 6.8577 20.9992 6.87416V8.9717C20.9992 8.98517 20.9992 8.99863 20.9992 9.01209C20.9977 9.07343 20.9977 9.07493 20.9303 9.07343C20.7017 9.07343 20.4731 9.05848 20.246 9.03005C19.7824 8.9717 19.3314 8.86398 18.8961 8.70091C18.4795 8.54531 18.0864 8.34782 17.7169 8.10545C17.6934 8.09049 17.6699 8.07703 17.6354 8.05459V8.15333C17.6354 9.68085 17.6354 11.2069 17.6354 12.7344C17.6354 13.5483 17.4146 14.3053 16.9589 14.995C16.4092 15.8284 15.6482 16.4133 14.6804 16.75C14.0931 16.9534 13.4839 17.0327 12.8591 16.9878C11.8052 16.913 10.8937 16.5285 10.117 15.8463C10.0966 15.8284 10.0778 15.8059 10.059 15.7865L10.0575 15.788Z" fill="#F21059"/>
<path d="M16.9589 3.5543C16.9276 3.5543 16.8963 3.55879 16.865 3.55879C16.3497 3.55879 15.8345 3.55879 15.3209 3.55879C15.2415 3.55879 15.2018 3.59569 15.2018 3.6695C15.2018 6.67518 15.2018 9.67936 15.2018 12.685C15.2018 12.8945 15.1862 13.0995 15.1173 13.2984C14.8761 14.0016 14.3813 14.4654 13.6264 14.63C12.8168 14.8065 12.1293 14.5701 11.5812 13.9702C11.5718 13.9597 11.5656 13.9477 11.5593 13.9358C11.7159 13.9956 11.8725 14.0555 12.0385 14.0869C12.5662 14.1871 13.0642 14.1093 13.5215 13.84C14.0508 13.5288 14.3625 13.0725 14.4721 12.4905C14.4924 12.3798 14.4956 12.2676 14.4956 12.1554C14.4956 9.14525 14.4956 6.13359 14.4956 3.12342C14.4956 2.98279 14.4752 3.00074 14.6209 3.00074C15.3475 3.00074 16.0741 3.00074 16.8007 3.00074C16.818 3.00074 16.8352 3.00074 16.8524 3.00074C16.926 3.00074 16.9276 3.00074 16.9276 3.07405C16.9276 3.23563 16.9245 3.39572 16.9573 3.5543H16.9589Z" fill="#4BE9FF"/>
<path d="M13.0689 8.49145C12.6257 8.50492 12.1904 8.57224 11.7691 8.70689C11.16 8.89989 10.6181 9.2036 10.1452 9.61951C9.52503 10.1656 9.1022 10.8269 8.87043 11.6004C8.78743 11.8756 8.74045 12.1584 8.71853 12.4442C8.706 12.6162 8.7013 12.7883 8.71227 12.9588C8.73889 13.4361 8.84225 13.8969 9.03173 14.3397C9.24315 14.8349 9.54069 15.2778 9.9275 15.6653C9.93533 15.6728 9.94002 15.6832 9.94629 15.6922C9.85859 15.6563 9.78812 15.595 9.71452 15.5396C8.99415 14.9935 8.48519 14.3053 8.20644 13.466C8.10935 13.1743 8.04827 12.875 8.01852 12.5698C7.9966 12.3484 7.99503 12.127 8.00912 11.9071C8.04358 11.3984 8.17042 10.9107 8.38967 10.4454C8.61987 9.95913 8.93308 9.52825 9.33084 9.15572C9.79439 8.72185 10.3315 8.3972 10.9438 8.18625C11.3275 8.05459 11.7222 7.9738 12.1293 7.94538C12.4237 7.92443 12.7166 7.93041 13.011 7.96482C13.0501 7.96931 13.0736 7.97679 13.0736 8.02167C13.0705 8.17727 13.0705 8.33286 13.0689 8.48846V8.49145Z" fill="#4BE9FF"/>
<path d="M11.5217 13.9044C11.3432 13.8266 11.1881 13.7159 11.0472 13.5872C10.6948 13.2625 10.485 12.8676 10.4302 12.4023C10.3159 11.4268 10.9595 10.586 11.8537 10.3257C12.2358 10.215 12.6179 10.2105 13.0016 10.3092C13.0235 10.3152 13.0439 10.3242 13.0674 10.3182C13.0799 10.2883 13.0736 10.2583 13.0736 10.2284C13.0736 9.68235 13.0736 9.13627 13.0736 8.59019C13.0736 8.56027 13.0768 8.53035 13.0783 8.50043C13.2991 8.48547 13.5184 8.50492 13.7361 8.52885C13.7705 8.53185 13.7799 8.5483 13.7783 8.57673C13.7783 8.59319 13.7783 8.60964 13.7783 8.6261C13.7783 9.35021 13.7783 10.0743 13.7783 10.7969C13.7783 10.8239 13.7862 10.8508 13.7674 10.8807C13.6671 10.8628 13.5701 10.8344 13.4683 10.8209C12.8826 10.7431 12.3548 10.8733 11.8913 11.2218C11.4841 11.5285 11.2336 11.931 11.149 12.4187C11.0597 12.9364 11.1725 13.4166 11.4841 13.852C11.4966 13.8699 11.5076 13.8879 11.5201 13.9073L11.5217 13.9044Z" fill="#F21059"/>
<path d="M18.4639 5.69822C18.2431 5.57404 18.0504 5.41695 17.8735 5.24191C17.3974 4.77363 17.0967 4.21857 16.9683 3.57674C16.9683 3.57076 16.9683 3.56627 16.9683 3.56029C17.1735 3.54981 17.3802 3.56029 17.5853 3.5558C17.6213 3.5558 17.6386 3.56926 17.6339 3.60367C17.6339 3.61714 17.6339 3.6306 17.6339 3.64407C17.6229 4.19464 17.7936 4.69733 18.0755 5.1701C18.1757 5.33916 18.2963 5.49475 18.4263 5.64436C18.4404 5.66082 18.4607 5.67428 18.4639 5.69822Z" fill="#F21059"/>
<path d="M20.2883 6.7036C19.7026 6.58391 19.1874 6.33107 18.7395 5.95106C18.6737 5.89571 18.6064 5.84035 18.5531 5.77153C18.575 5.77003 18.5907 5.782 18.6079 5.79098C18.9634 5.98547 19.3424 6.11264 19.7464 6.17548C19.903 6.20091 20.0628 6.21587 20.2225 6.21438C20.2898 6.21438 20.2914 6.21587 20.2914 6.27721C20.2914 6.41934 20.2898 6.55998 20.2883 6.70211V6.7036Z" fill="#6ABAC5"/>
</g>
</svg>
