<svg width="30" height="20" viewBox="0 0 30 20" fill="none" xmlns="http://www.w3.org/2000/svg">
<mask id="mask0_5_167" style="mask-type:alpha" maskUnits="userSpaceOnUse" x="0" y="0" width="30" height="20">
<path d="M0 10C0 4.47715 4.47715 0 10 0H20C25.5228 0 30 4.47715 30 10C30 15.5228 25.5228 20 20 20H10C4.47715 20 0 15.5228 0 10Z" fill="#D9D9D9"/>
</mask>
<g mask="url(#mask0_5_167)">
<path d="M0 -1H30V21H0V-1Z" fill="#010201"/>
<path d="M15.873 9.6617C17.3178 8.11816 18.7494 6.58856 20.2306 5.00631C19.5966 5.00631 19.0388 5.01354 18.481 5.00219C18.2943 4.99806 18.1767 5.06256 18.0596 5.18848C17.2223 6.09211 16.3789 6.99109 15.5367 7.89058C15.3461 8.09391 15.1517 8.29466 14.9496 8.50676C14.8866 8.43503 14.8446 8.39013 14.8065 8.34265C13.9792 7.32137 13.1469 6.30369 12.3311 5.27467C12.1715 5.0734 12.0064 4.99651 11.738 5.00012C10.6057 5.01457 9.47298 5.0058 8.34077 5.00683C8.24467 5.00683 8.14912 5.01457 8 5.02128C9.65579 7.04476 11.2784 9.02798 12.9061 11.0164C11.3591 12.6683 9.82976 14.3026 8.26289 15.9757C8.4087 15.9845 8.49596 15.9938 8.58267 15.9943C9.05213 15.9958 9.52158 15.9876 9.99104 15.9984C10.1744 16.0026 10.2942 15.9448 10.4141 15.8163C11.4878 14.6603 12.5686 13.51 13.6484 12.3586C13.7069 12.2957 13.7715 12.2374 13.8428 12.1682C13.9085 12.2451 13.9604 12.3039 14.0101 12.3643C14.944 13.5043 15.8802 14.6427 16.8075 15.7874C16.9312 15.9401 17.0588 16.0015 17.2665 16C18.3987 15.9897 19.5309 15.9948 20.6631 15.9948H21C19.2603 13.8459 17.5691 11.7564 15.873 9.6617ZM17.6884 14.876C17.5901 14.8693 17.4719 14.7939 17.4084 14.717C15.8498 12.8231 14.2979 10.925 12.7442 9.02747C11.9959 8.113 11.2475 7.19803 10.4992 6.28253C10.4511 6.2237 10.4064 6.16178 10.3307 6.06218C10.7179 6.06218 11.063 6.05547 11.4077 6.06734C11.4745 6.06992 11.5562 6.12926 11.601 6.18397C13.9168 9.04037 16.2287 11.8993 18.5412 14.7583C18.5616 14.7841 18.5749 14.8151 18.6146 14.8837C18.2761 14.8837 17.9806 14.8971 17.6884 14.876Z" fill="white"/>
</g>
</svg>
