<svg width="30" height="20" viewBox="0 0 30 20" fill="none" xmlns="http://www.w3.org/2000/svg">
<mask id="mask0_5_148" style="mask-type:alpha" maskUnits="userSpaceOnUse" x="0" y="0" width="30" height="20">
<path d="M0 10C0 4.47715 4.47715 0 10 0H20C25.5228 0 30 4.47715 30 10C30 15.5228 25.5228 20 20 20H10C4.47715 20 0 15.5228 0 10Z" fill="#D9D9D9"/>
</mask>
<g mask="url(#mask0_5_148)">
<path d="M0 -1H30V21H0V-1Z" fill="#DA0000"/>
<path d="M22.6658 5.87429C22.4827 5.13715 21.9404 4.55619 21.2507 4.3581C20.0027 4 15 4 15 4C15 4 9.99734 4 8.74934 4.3581C8.06134 4.55619 7.51911 5.13524 7.33422 5.87429C7 7.21143 7 10 7 10C7 10 7 12.7886 7.33422 14.1257C7.51733 14.8629 8.05956 15.4438 8.74934 15.6419C9.99734 16 15 16 15 16C15 16 20.0027 16 21.2507 15.6419C21.9387 15.4438 22.4809 14.8648 22.6658 14.1257C23 12.7886 23 10 23 10C23 10 23 7.21143 22.6658 5.87429ZM13.4 12.5714V7.42857L17.5564 10L13.4 12.5714Z" fill="white"/>
</g>
</svg>
